<svg width="450" height="450" viewBox="0 0 450 450" fill="none" xmlns="http://www.w3.org/2000/svg">
<path d="M329.262 93.1641C341.307 93.1641 352.348 96.6259 362.385 103.549C372.422 110.473 380.452 119.704 386.474 131.244C392.497 142.783 395.508 155.476 395.508 169.323V280.1C395.508 293.947 392.497 306.833 386.474 318.756C380.452 330.296 372.422 339.527 362.385 346.451C352.348 353.374 341.307 356.836 329.262 356.836H314.206C307.85 356.836 302.496 354.336 298.147 349.335C293.463 343.95 291.121 337.604 291.121 330.296V314.141C291.121 307.217 293.463 301.255 298.147 296.255C302.496 290.87 307.85 288.177 314.206 288.177H329.262C330.935 288.177 332.608 287.408 334.281 285.87C335.619 283.946 336.288 282.023 336.288 280.1V169.323C336.288 167.4 335.619 165.669 334.281 164.13C332.608 162.592 330.935 161.823 329.262 161.823H283.593C279.912 161.823 277.571 163.746 276.567 167.592L231.399 306.063C226.715 321.449 218.518 333.757 206.808 342.989C195.098 352.22 182.217 356.836 168.165 356.836H122.997C110.618 356.836 99.41 353.374 89.3728 346.451C79.3356 339.527 71.3058 330.296 65.2835 318.756C59.2612 306.833 56.25 293.947 56.25 280.1V169.323C56.25 155.476 59.2612 142.783 65.2835 131.244C71.3058 119.704 79.3356 110.473 89.3728 103.549C99.41 96.6259 110.618 93.1641 122.997 93.1641H136.548C142.904 93.1641 148.258 95.8566 152.607 101.242C156.957 106.242 159.131 112.396 159.131 119.704V135.282C159.131 142.59 156.957 148.937 152.607 154.322C148.258 159.322 142.904 161.823 136.548 161.823H122.997C118.313 161.823 115.971 164.323 115.971 169.323V280.1C115.971 282.023 116.641 283.946 117.979 285.87C119.317 287.408 120.99 288.177 122.997 288.177H168.165C172.18 288.177 174.689 286.254 175.693 282.408L220.86 143.36C225.544 128.359 233.741 116.243 245.451 107.011C257.162 97.7798 269.875 93.1641 283.593 93.1641H329.262Z" fill="#E2E2E2"/>
</svg>
